<svg width="110" height="110" viewBox="0 0 110 110" fill="none" xmlns="http://www.w3.org/2000/svg">
<path d="M91.6668 91.6668H21.7709C19.8734 91.6668 18.3334 93.2068 18.3334 95.1043C18.3334 97.0018 19.8734 98.5418 21.7709 98.5418H93.9584C96.3876 98.5418 98.5418 96.3876 98.5418 93.9584V21.7709C98.5418 19.8734 97.0018 18.3334 95.1043 18.3334C93.2068 18.3334 91.6668 19.8734 91.6668 21.7709V91.6668ZM87.0834 13.7501C87.0834 11.5592 85.3463 9.16675 82.5001 9.16675H13.7501C10.9084 9.16675 9.16675 11.5455 9.16675 13.7501V82.5001C9.16675 85.3463 11.5501 87.0834 13.7501 87.0834H82.5001C84.6909 87.0834 87.0834 85.3463 87.0834 82.5001V13.7501ZM16.0417 16.0417H80.2084V80.2084H16.0417V16.0417ZM28.6413 51.8192L42.043 63.2959C42.6938 63.878 43.5142 64.1667 44.3255 64.1667C45.2559 64.1667 46.1817 63.7909 46.8601 63.053L69.5613 37.808C70.1618 37.148 70.4597 36.323 70.4597 35.5026C70.4597 33.6234 68.9426 32.0834 67.0313 32.0834C66.0963 32.0834 65.1751 32.4592 64.4922 33.1972L44.0826 55.9397L33.2155 46.7226C32.5555 46.1359 31.7442 45.8517 30.9284 45.8517C29.0263 45.8517 27.5001 47.3872 27.5001 49.2709C27.5001 50.2105 27.8851 51.1455 28.6413 51.8192V51.8192Z" fill="black"/>
</svg>
